<svg width="20" height="14" viewBox="0 0 20 14" fill="none" xmlns="http://www.w3.org/2000/svg">
<path d="M9.58329 4.71834C9.58329 4.37317 9.30347 4.09334 8.95829 4.09334H7.70829C7.36311 4.09334 7.08329 4.37317 7.08329 4.71834V5.96834C7.08329 6.31352 7.36311 6.59334 7.70829 6.59334H8.95829C9.30347 6.59334 9.58329 6.31352 9.58329 5.96834V4.71834Z" fill="#FF7621"/>
<path fill-rule="evenodd" clip-rule="evenodd" d="M14.1666 9.92668C14.5118 9.92668 14.7916 9.64685 14.7916 9.30168V9.09334C14.7916 8.74816 15.0714 8.46834 15.4166 8.46834H15.625C15.9701 8.46834 16.25 8.18852 16.25 7.84334V2.84334C16.25 2.49817 15.9701 2.21834 15.625 2.21834H15.4166C15.0714 2.21834 14.7916 1.93852 14.7916 1.59334V1.38501C14.7916 1.03983 14.5118 0.76001 14.1666 0.76001H2.49996C2.15478 0.76001 1.87496 1.03983 1.87496 1.38501V1.59334C1.87496 1.93852 1.59514 2.21834 1.24996 2.21834H1.04163C0.696448 2.21834 0.416626 2.49817 0.416626 2.84334V7.84334C0.416626 8.18852 0.696448 8.46834 1.04163 8.46834H1.24996C1.59514 8.46834 1.87496 8.74817 1.87496 9.09334V9.30168C1.87496 9.64685 2.15478 9.92668 2.49996 9.92668H14.1666ZM2.08329 3.05168C2.08329 2.7065 2.36311 2.42668 2.70829 2.42668H13.9583C14.3035 2.42668 14.5833 2.7065 14.5833 3.05168V7.63501C14.5833 7.98019 14.3035 8.26001 13.9583 8.26001H2.70829C2.36311 8.26001 2.08329 7.98019 2.08329 7.63501V3.05168Z" fill="#FF7621"/>
<path d="M19.5833 6.38501C19.5833 6.03983 19.3035 5.76001 18.9583 5.76001H18.5416C18.1964 5.76001 17.9166 6.03983 17.9166 6.38501V10.9683C17.9166 11.3135 17.6368 11.5933 17.2916 11.5933H5.20829C4.86311 11.5933 4.58329 11.8732 4.58329 12.2183V12.635C4.58329 12.9802 4.86312 13.26 5.20829 13.26H17.5C17.8451 13.26 18.125 12.9802 18.125 12.635V12.4267C18.125 12.0815 18.4048 11.8017 18.75 11.8017H18.9583C19.3035 11.8017 19.5833 11.5219 19.5833 11.1767V6.38501Z" fill="#FF7621"/>
</svg>
