<svg width="20" height="16" viewBox="0 0 20 16" fill="none" xmlns="http://www.w3.org/2000/svg">
<path d="M2.50004 1.55176C2.50004 1.20658 2.22022 0.926758 1.87504 0.926758L1.45837 0.926758C1.1132 0.926758 0.833374 1.20658 0.833374 1.55176L0.833376 13.0101C0.833376 13.3553 1.1132 13.6351 1.45838 13.6351H1.66671C2.01189 13.6351 2.29171 13.9149 2.29171 14.2601L2.29171 14.4684C2.29171 14.8136 2.57153 15.0934 2.91671 15.0934L18.5417 15.0934C18.8869 15.0934 19.1667 14.8136 19.1667 14.4684L19.1667 14.0518C19.1667 13.7066 18.8869 13.4268 18.5417 13.4268L3.12504 13.4268C2.77986 13.4268 2.50004 13.1469 2.50004 12.8018L2.50004 11.1351C2.50004 10.7899 2.77986 10.5101 3.12504 10.5101H3.54171C3.88689 10.5101 4.16671 10.2303 4.16671 9.88509V9.88509C4.16671 9.53991 4.44653 9.26009 4.79171 9.26009V9.26009C5.13688 9.26009 5.41671 8.98027 5.41671 8.63509V8.63509C5.41671 8.28991 5.69653 8.01009 6.04171 8.01009V8.01009C6.38689 8.01009 6.66671 7.73027 6.66671 7.38509V7.38509C6.66671 7.03991 6.94653 6.76009 7.29171 6.76009V6.76009C7.63689 6.76009 7.91671 6.48027 7.91671 6.13509V5.92676C7.91671 5.69664 8.10326 5.51009 8.33337 5.51009V5.51009C8.56349 5.51009 8.75004 5.69664 8.75004 5.92676V6.13509C8.75004 6.48027 9.02986 6.76009 9.37504 6.76009V6.76009C9.72022 6.76009 10 7.03991 10 7.38509V7.38509C10 7.73027 10.2799 8.01009 10.625 8.01009V8.01009C10.9702 8.01009 11.25 8.28991 11.25 8.63509V8.63509C11.25 8.98027 11.5299 9.26009 11.875 9.26009V9.26009C12.2202 9.26009 12.5 9.53991 12.5 9.88509V9.88509C12.5 10.2303 12.7799 10.5101 13.125 10.5101L13.5417 10.5101C13.8869 10.5101 14.1667 10.2303 14.1667 9.88509V9.88509C14.1667 9.53991 14.4465 9.26009 14.7917 9.26009V9.26009C15.1369 9.26009 15.4167 8.98027 15.4167 8.63509V8.63509C15.4167 8.28991 15.6965 8.01009 16.0417 8.01009V8.01009C16.3869 8.01009 16.6667 7.73027 16.6667 7.38509V7.38509C16.6667 7.03991 16.9465 6.76009 17.2917 6.76009V6.76009C17.6369 6.76009 17.9167 6.48027 17.9167 6.13509L17.9167 5.71842C17.9167 5.37325 17.6369 5.09342 17.2917 5.09342L16.875 5.09342C16.5299 5.09342 16.25 5.37325 16.25 5.71842V5.71842C16.25 6.0636 15.9702 6.34342 15.625 6.34342V6.34342C15.2799 6.34342 15 6.62325 15 6.96842V6.96842C15 7.3136 14.7202 7.59342 14.375 7.59342V7.59342C14.0299 7.59342 13.75 7.87325 13.75 8.21842L13.75 8.42676C13.75 8.65688 13.5635 8.84343 13.3334 8.84343V8.84343C13.1033 8.84343 12.9167 8.65688 12.9167 8.42676L12.9167 8.21842C12.9167 7.87325 12.6369 7.59342 12.2917 7.59342V7.59342C11.9465 7.59342 11.6667 7.3136 11.6667 6.96842V6.96842C11.6667 6.62325 11.3869 6.34342 11.0417 6.34342V6.34342C10.6965 6.34342 10.4167 6.0636 10.4167 5.71842V5.71842C10.4167 5.37325 10.1369 5.09342 9.79171 5.09342V5.09342C9.44653 5.09342 9.16671 4.8136 9.16671 4.46842V4.46842C9.16671 4.12325 8.88689 3.84342 8.54171 3.84342L8.12504 3.84342C7.77986 3.84342 7.50004 4.12325 7.50004 4.46842V4.46842C7.50004 4.8136 7.22022 5.09342 6.87504 5.09342V5.09342C6.52986 5.09342 6.25004 5.37325 6.25004 5.71842V5.71842C6.25004 6.0636 5.97022 6.34342 5.62504 6.34342V6.34342C5.27986 6.34342 5.00004 6.62325 5.00004 6.96842V6.96842C5.00004 7.3136 4.72022 7.59342 4.37504 7.59342V7.59342C4.02986 7.59342 3.75004 7.87325 3.75004 8.21842V8.21842C3.75004 8.5636 3.47022 8.84342 3.12504 8.84342V8.84342C2.77986 8.84342 2.50004 8.5636 2.50004 8.21842L2.50004 1.55176Z" fill="#FF7621"/>
</svg>
