<svg width="20" height="16" viewBox="0 0 20 16" fill="none" xmlns="http://www.w3.org/2000/svg">
<path fill-rule="evenodd" clip-rule="evenodd" d="M15.4167 1.55164C15.4167 1.20646 15.1369 0.926636 14.7917 0.926636H5.20837C4.8632 0.926636 4.58337 1.20646 4.58337 1.55164V1.75997C4.58337 2.10515 4.30355 2.38497 3.95837 2.38497H2.91671C2.57153 2.38497 2.29171 2.66479 2.29171 3.00997V3.2183C2.29171 3.56348 2.01188 3.8433 1.66671 3.8433H1.45837C1.1132 3.8433 0.833374 4.12312 0.833374 4.4683V11.5516C0.833374 11.8968 1.1132 12.1766 1.45837 12.1766H1.66671C2.01189 12.1766 2.29171 12.4565 2.29171 12.8016V13.01C2.29171 13.3551 2.57153 13.635 2.91671 13.635H3.95837C4.30355 13.635 4.58337 13.9148 4.58337 14.26V14.4683C4.58337 14.8135 4.86319 15.0933 5.20837 15.0933H14.7917C15.1369 15.0933 15.4167 14.8135 15.4167 14.4683V14.26C15.4167 13.9148 15.6965 13.635 16.0417 13.635H17.0834C17.4286 13.635 17.7084 13.3551 17.7084 13.01V12.8016C17.7084 12.4565 17.9882 12.1766 18.3334 12.1766H18.5417C18.8869 12.1766 19.1667 11.8968 19.1667 11.5516V4.4683C19.1667 4.12312 18.8869 3.8433 18.5417 3.8433H18.3334C17.9882 3.8433 17.7084 3.56348 17.7084 3.2183V3.00997C17.7084 2.66479 17.4286 2.38497 17.0834 2.38497H16.0417C15.6965 2.38497 15.4167 2.10515 15.4167 1.75997V1.55164ZM17.5 11.3433C17.5 11.6885 17.2202 11.9683 16.875 11.9683H16.0417C15.6965 11.9683 15.4167 11.6885 15.4167 11.3433V10.0933C15.4167 9.74812 15.6965 9.4683 16.0417 9.4683H16.875C17.2202 9.4683 17.5 9.74812 17.5 10.0933V11.3433ZM13.75 11.5516C13.75 11.2065 13.4702 10.9266 13.125 10.9266H11.4584C11.1132 10.9266 10.8334 11.2065 10.8334 11.5516V12.8016C10.8334 13.1468 11.1132 13.4266 11.4584 13.4266H13.125C13.4702 13.4266 13.75 13.1468 13.75 12.8016V11.5516ZM8.54171 10.9266C8.88688 10.9266 9.16671 11.2065 9.16671 11.5516V12.8016C9.16671 13.1468 8.88688 13.4266 8.54171 13.4266H6.87504C6.52986 13.4266 6.25004 13.1468 6.25004 12.8016V11.5516C6.25004 11.2065 6.52986 10.9266 6.87504 10.9266H8.54171ZM4.58337 11.3433C4.58337 11.6885 4.30355 11.9683 3.95837 11.9683H3.12504C2.77986 11.9683 2.50004 11.6885 2.50004 11.3433V10.0933C2.50004 9.74812 2.77986 9.4683 3.12504 9.4683H3.95837C4.30355 9.4683 4.58337 9.74812 4.58337 10.0933V11.3433ZM16.875 7.80164C17.2202 7.80164 17.5 7.52181 17.5 7.17664V4.67664C17.5 4.33146 17.2202 4.05164 16.875 4.05164H15.8334C15.4882 4.05164 15.2084 3.77181 15.2084 3.42664V3.2183C15.2084 2.87312 14.9286 2.5933 14.5834 2.5933H5.41671C5.07153 2.5933 4.79171 2.87312 4.79171 3.2183V3.42664C4.79171 3.77181 4.51188 4.05164 4.16671 4.05164H3.12504C2.77986 4.05164 2.50004 4.33146 2.50004 4.67664V7.17664C2.50004 7.52181 2.77986 7.80164 3.12504 7.80164H4.16671C4.51188 7.80164 4.79171 8.08146 4.79171 8.42664V8.63497C4.79171 8.98015 5.07153 9.25997 5.41671 9.25997H14.5834C14.9286 9.25997 15.2084 8.98015 15.2084 8.63497V8.42664C15.2084 8.08146 15.4882 7.80164 15.8334 7.80164H16.875Z" fill="#FF7621"/>
</svg>
