<svg width="16" height="12" viewBox="0 0 16 12" fill="none" xmlns="http://www.w3.org/2000/svg">
<path fill-rule="evenodd" clip-rule="evenodd" d="M13.6667 11.6767C13.9428 11.6767 14.1667 11.4529 14.1667 11.1767V11.0101C14.1667 10.7339 14.3905 10.5101 14.6667 10.5101H14.8334C15.1095 10.5101 15.3334 10.2862 15.3334 10.0101V2.01005C15.3334 1.73391 15.1095 1.51005 14.8334 1.51005H14.6667C14.3905 1.51005 14.1667 1.28619 14.1667 1.01005V0.843384C14.1667 0.567241 13.9428 0.343384 13.6667 0.343384H2.33335C2.05721 0.343384 1.83335 0.567241 1.83335 0.843384V1.01005C1.83335 1.28619 1.6095 1.51005 1.33335 1.51005H1.16669C0.890545 1.51005 0.666687 1.73391 0.666687 2.01005V10.0101C0.666687 10.2862 0.890545 10.5101 1.16669 10.5101H1.33335C1.6095 10.5101 1.83335 10.7339 1.83335 11.0101V11.1767C1.83335 11.4529 2.05721 11.6767 2.33335 11.6767H13.6667ZM2.00002 2.17672C2.00002 1.90057 2.22388 1.67672 2.50002 1.67672H13.5C13.7762 1.67672 14 1.90058 14 2.17672V2.51005C14 2.78619 13.7762 3.01005 13.5 3.01005H13.1667C12.8905 3.01005 12.6667 3.23391 12.6667 3.51005V3.67672C12.6667 3.95286 12.4428 4.17672 12.1667 4.17672H11.8334C11.5572 4.17672 11.3334 4.40058 11.3334 4.67672V4.84338C11.3334 5.11953 11.1095 5.34338 10.8334 5.34338H10.5C10.2239 5.34338 10 5.56724 10 5.84338V6.01005C10 6.28619 9.77616 6.51005 9.50002 6.51005H9.16669C8.89054 6.51005 8.66669 6.73391 8.66669 7.01005V7.17672C8.66669 7.45286 8.44283 7.67672 8.16669 7.67672H7.83335C7.55721 7.67672 7.33335 7.45286 7.33335 7.17672V7.01005C7.33335 6.73391 7.1095 6.51005 6.83335 6.51005H6.50002C6.22388 6.51005 6.00002 6.28619 6.00002 6.01005V5.84338C6.00002 5.56724 5.77616 5.34338 5.50002 5.34338H5.16669C4.89054 5.34338 4.66669 5.11953 4.66669 4.84338V4.67672C4.66669 4.40057 4.44283 4.17672 4.16669 4.17672H3.83335C3.55721 4.17672 3.33335 3.95286 3.33335 3.67672V3.51005C3.33335 3.23391 3.1095 3.01005 2.83335 3.01005H2.50002C2.22388 3.01005 2.00002 2.78619 2.00002 2.51005V2.17672ZM2.50002 4.34338C2.22388 4.34338 2.00002 4.56724 2.00002 4.84338V9.84338C2.00002 10.1195 2.22388 10.3434 2.50002 10.3434H13.5C13.7762 10.3434 14 10.1195 14 9.84338V4.84338C14 4.56724 13.7762 4.34338 13.5 4.34338H13.3334C13.0572 4.34338 12.8334 4.56724 12.8334 4.84338V5.01005C12.8334 5.28619 12.6095 5.51005 12.3334 5.51005H12C11.7239 5.51005 11.5 5.73391 11.5 6.01005V6.17672C11.5 6.45286 11.2762 6.67672 11 6.67672H10.6667C10.3905 6.67672 10.1667 6.90057 10.1667 7.17672V7.34338C10.1667 7.61953 9.94283 7.84338 9.66669 7.84338H9.33335C9.05721 7.84338 8.83335 8.06724 8.83335 8.34338V8.51005C8.83335 8.78619 8.6095 9.01005 8.33335 9.01005H7.66669C7.39054 9.01005 7.16669 8.78619 7.16669 8.51005V8.34338C7.16669 8.06724 6.94283 7.84338 6.66669 7.84338H6.33335C6.05721 7.84338 5.83335 7.61953 5.83335 7.34338V7.17672C5.83335 6.90058 5.6095 6.67672 5.33335 6.67672H5.00002C4.72388 6.67672 4.50002 6.45286 4.50002 6.17672V6.01005C4.50002 5.73391 4.27616 5.51005 4.00002 5.51005H3.66669C3.39055 5.51005 3.16669 5.28619 3.16669 5.01005V4.84338C3.16669 4.56724 2.94283 4.34338 2.66669 4.34338H2.50002Z" fill="#051926"/>
</svg>
