<svg width="287" height="35" viewBox="0 0 287 35" fill="none" xmlns="http://www.w3.org/2000/svg">
<path d="M16.34 28H25.67V35H14V30.33H9.33V16.33H0V9.33H16.33V28H16.34ZM9.34 0H16.34V7H9.34V0Z" fill="#8B5CF6"/>
<path d="M39.67 9.33003V4.66003H46.67V9.33003H58.34V16.33H46.67V28H58.34V35H44.34V30.33H39.67V16.33H32.67V9.33003H39.67Z" fill="#8B5CF6"/>
<path d="M70 30.33H65.33V14H70V9.32996H86.33V14H91V21H86.33V25.67H72.33V28H86.33V35H70V30.33ZM84 18.66V16.33H72.33V18.66H84Z" fill="#8B5CF6"/>
<path d="M98.01 14H102.68V9.32996H109.68V14H112.01V9.32996H119.01V14H123.68V35H116.68V21H114.35V35H107.35V21H105.02V35H98.02V14H98.01Z" fill="#8B5CF6"/>
<path d="M135.34 30.33H130.67V6.99996H135.34V2.32996H149.34V6.99996H154.01V18.67H156.34V25.67H154.01V30.34H149.34V35.01H135.34V30.34V30.33ZM147.01 28V25.67H144.68V18.67H147.01V9.33996H137.68V28.01H147.01V28Z" fill="#E7E5E4"/>
<path d="M168.01 30.33H163.34V9.32996H170.34V28H182.01V9.32996H189.01V30.33H184.34V35H168.01V30.33Z" fill="#E7E5E4"/>
<path d="M200.68 30.33H196.01V14H200.68V9.32996H217.01V14H221.68V21H217.01V25.67H203.01V28H217.01V35H200.68V30.33ZM214.68 18.66V16.33H203.01V18.66H214.68Z" fill="#E7E5E4"/>
<path d="M235.68 16.33V18.66H249.68V23.33H254.35V30.33H249.68V35H228.68V28H247.34V25.67H233.34V21H228.67V14H233.34V9.32996H254.34V16.33H235.68Z" fill="#E7E5E4"/>
<path d="M268.34 9.33003V4.66003H275.34V9.33003H287.01V16.33H275.34V28H287.01V35H273.01V30.33H268.34V16.33H261.34V9.33003H268.34Z" fill="#E7E5E4"/>
</svg>
