<svg width="20" height="20" viewBox="0 0 20 20" fill="none" xmlns="http://www.w3.org/2000/svg">
<path fill-rule="evenodd" clip-rule="evenodd" d="M8.02087 2.50993C8.19346 2.50993 8.33337 2.37002 8.33337 2.19743V1.46826C8.33337 1.12308 8.61319 0.843262 8.95837 0.843262H9.37504C9.72022 0.843262 10 1.12308 10 1.46826V2.19743C10 2.37002 10.14 2.50993 10.3125 2.50993V2.50993C10.4851 2.50993 10.625 2.64984 10.625 2.82243V3.65576C10.625 3.94341 10.8582 4.17659 11.1459 4.17659V4.17659C11.4335 4.17659 11.6667 4.40978 11.6667 4.69743V6.05159C11.6667 6.39677 11.9465 6.67659 12.2917 6.67659H13.6459C13.9335 6.67659 14.1667 6.90978 14.1667 7.19743V7.19743C14.1667 7.48508 14.3999 7.71826 14.6875 7.71826H15.5209C15.6935 7.71826 15.8334 7.85817 15.8334 8.03076V8.03076C15.8334 8.20335 15.9733 8.34326 16.1459 8.34326H16.875C17.2202 8.34326 17.5 8.62308 17.5 8.96826V9.38493C17.5 9.73011 17.2202 10.0099 16.875 10.0099H16.1459C15.9733 10.0099 15.8334 10.1498 15.8334 10.3224V10.3224C15.8334 10.495 15.6935 10.6349 15.5209 10.6349H14.6875C14.3999 10.6349 14.1667 10.8681 14.1667 11.1558V11.1558C14.1667 11.4434 13.9335 11.6766 13.6459 11.6766H12.2917C11.9465 11.6766 11.6667 11.9564 11.6667 12.3016V13.6558C11.6667 13.9434 11.4335 14.1766 11.1459 14.1766V14.1766C10.8582 14.1766 10.625 14.4098 10.625 14.6974V15.5308C10.625 15.7033 10.4851 15.8433 10.3125 15.8433V15.8433C10.14 15.8433 10 15.9832 10 16.1558V16.8849C10 17.2301 9.72022 17.5099 9.37504 17.5099H8.95837C8.6132 17.5099 8.33337 17.2301 8.33337 16.8849V16.1558C8.33337 15.9832 8.19346 15.8433 8.02087 15.8433V15.8433C7.84828 15.8433 7.70837 15.7033 7.70837 15.5308V14.6974C7.70837 14.4098 7.47519 14.1766 7.18754 14.1766V14.1766C6.89989 14.1766 6.66671 13.9434 6.66671 13.6558V12.0933C6.66671 11.7481 6.38688 11.4683 6.04171 11.4683H4.58337C4.35326 11.4683 4.16671 11.2817 4.16671 11.0516V11.0516C4.16671 10.8215 3.98016 10.6349 3.75004 10.6349H2.81254C2.63995 10.6349 2.50004 10.495 2.50004 10.3224V10.3224C2.50004 10.1498 2.36013 10.0099 2.18754 10.0099H1.45837C1.1132 10.0099 0.833374 9.73011 0.833374 9.38493V8.96826C0.833374 8.62308 1.1132 8.34326 1.45837 8.34326H2.18754C2.36013 8.34326 2.50004 8.20335 2.50004 8.03076V8.03076C2.50004 7.85817 2.63995 7.71826 2.81254 7.71826H3.64587C3.93352 7.71826 4.16671 7.48508 4.16671 7.19743V7.19743C4.16671 6.90978 4.39989 6.67659 4.68754 6.67659H6.04171C6.38688 6.67659 6.66671 6.39677 6.66671 6.05159V4.69743C6.66671 4.40978 6.89989 4.17659 7.18754 4.17659V4.17659C7.47519 4.17659 7.70837 3.94341 7.70837 3.65576V2.82243C7.70837 2.64984 7.84828 2.50993 8.02087 2.50993V2.50993ZM9.37504 14.1766C9.72022 14.1766 10 13.8968 10 13.5516V12.0933C10 11.7481 10.2799 11.4683 10.625 11.4683H10.8334C11.1786 11.4683 11.4584 11.1884 11.4584 10.8433V10.6349C11.4584 10.2897 11.7382 10.0099 12.0834 10.0099H13.5417C13.8869 10.0099 14.1667 9.73011 14.1667 9.38493V8.96826C14.1667 8.62308 13.8869 8.34326 13.5417 8.34326H12.0834C11.7382 8.34326 11.4584 8.06344 11.4584 7.71826V7.50993C11.4584 7.16475 11.1786 6.88493 10.8334 6.88493H10.625C10.2799 6.88493 10 6.60511 10 6.25993V4.80159C10 4.45642 9.72022 4.17659 9.37504 4.17659H8.95837C8.6132 4.17659 8.33337 4.45642 8.33337 4.80159V6.25993C8.33337 6.60511 8.05355 6.88493 7.70837 6.88493H7.50004C7.15486 6.88493 6.87504 7.16475 6.87504 7.50993V7.71826C6.87504 8.06344 6.59522 8.34326 6.25004 8.34326H4.79171C4.44653 8.34326 4.16671 8.62308 4.16671 8.96826V9.17659C4.16671 9.52177 4.44653 9.80159 4.79171 9.80159H6.25004C6.59522 9.80159 6.87504 10.0814 6.87504 10.4266V10.8433C6.87504 11.1884 7.15486 11.4683 7.50004 11.4683H7.70837C8.05355 11.4683 8.33337 11.7481 8.33337 12.0933V13.5516C8.33337 13.8968 8.61319 14.1766 8.95837 14.1766H9.37504Z" fill="#FF7621"/>
<path d="M16.9313 13.9061C16.8994 13.5866 16.6305 13.3433 16.3094 13.3433H16.1907C15.8696 13.3433 15.6007 13.5866 15.5688 13.9061L15.4676 14.9178C15.438 15.2138 15.2039 15.4479 14.9079 15.4775L13.8962 15.5786C13.5767 15.6106 13.3334 15.8794 13.3334 16.2005V16.3193C13.3334 16.6404 13.5767 16.9093 13.8962 16.9412L14.9079 17.0424C15.2039 17.072 15.438 17.3061 15.4676 17.6021L15.5688 18.6138C15.6007 18.9333 15.8696 19.1766 16.1907 19.1766H16.3094C16.6305 19.1766 16.8994 18.9333 16.9313 18.6138L17.0325 17.6021C17.0621 17.3061 17.2962 17.072 17.5922 17.0424L18.6039 16.9412C18.9234 16.9093 19.1667 16.6404 19.1667 16.3193V16.2005C19.1667 15.8794 18.9234 15.6106 18.6039 15.5786L17.5922 15.4775C17.2962 15.4479 17.0621 15.2138 17.0325 14.9178L16.9313 13.9061Z" fill="#FF7621"/>
</svg>
