<svg width="21" height="21" viewBox="0 0 21 21" fill="none" xmlns="http://www.w3.org/2000/svg">
<path fill-rule="evenodd" clip-rule="evenodd" d="M7.5 0C7.91421 0 8.25 0.335786 8.25 0.75V7.5C8.25 7.91421 8.58579 8.25 9 8.25H9.25C9.66421 8.25 10 8.58579 10 9V10.25C10 10.6642 10.3358 11 10.75 11H12C12.4142 11 12.75 11.3358 12.75 11.75V12C12.75 12.4142 13.0858 12.75 13.5 12.75H20.25C20.6642 12.75 21 13.0858 21 13.5V16.25C21 16.6642 20.6642 17 20.25 17H20C19.5858 17 19.25 17.3358 19.25 17.75V18C19.25 18.4142 18.9142 18.75 18.5 18.75H16.25C15.8358 18.75 15.5 19.0858 15.5 19.5V19.75C15.5 20.1642 15.1642 20.5 14.75 20.5H7.5C7.08579 20.5 6.75 20.1642 6.75 19.75V19.5C6.75 19.0858 6.41421 18.75 6 18.75H4.75C4.33579 18.75 4 18.4142 4 18V17.75C4 17.3358 3.66421 17 3.25 17H3C2.58579 17 2.25 16.6642 2.25 16.25V15C2.25 14.5858 1.91421 14.25 1.5 14.25H1.25C0.835786 14.25 0.5 13.9142 0.5 13.5V6.25C0.5 5.83579 0.835786 5.5 1.25 5.5H1.5C1.91421 5.5 2.25 5.16421 2.25 4.75L2.25 2.5C2.25 2.08579 2.58579 1.75 3 1.75L3.25 1.75C3.66421 1.75 4 1.41421 4 1V0.75C4 0.335786 4.33579 0 4.75 0H7.5ZM19 15.5C19 15.0858 18.6642 14.75 18.25 14.75H13.25C12.8358 14.75 12.5 14.4142 12.5 14V13.75C12.5 13.3358 12.1642 13 11.75 13H10.5C10.0858 13 9.75 12.6642 9.75 12.25V12C9.75 11.5858 9.41421 11.25 9 11.25H8.75C8.33579 11.25 8 10.9142 8 10.5V9.25C8 8.83579 7.66421 8.5 7.25 8.5H7C6.58579 8.5 6.25 8.16421 6.25 7.75V2.75C6.25 2.33579 5.91421 2 5.5 2L5 2C4.58579 2 4.25 2.33579 4.25 2.75L4.25 5C4.25 5.41421 3.91421 5.75 3.5 5.75H3.25C2.83579 5.75 2.5 6.08579 2.5 6.5L2.5 13.25C2.5 13.6642 2.83579 14 3.25 14H3.5C3.91421 14 4.25 14.3358 4.25 14.75V16C4.25 16.4142 4.58579 16.75 5 16.75H6.25C6.66421 16.75 7 17.0858 7 17.5V17.75C7 18.1642 7.33579 18.5 7.75 18.5H14.5C14.9142 18.5 15.25 18.1642 15.25 17.75V17.5C15.25 17.0858 15.5858 16.75 16 16.75H18.25C18.6642 16.75 19 16.4142 19 16V15.5Z" fill="#051926"/>
</svg>
