<svg width="20" height="18" viewBox="0 0 20 18" fill="none" xmlns="http://www.w3.org/2000/svg">
<path fill-rule="evenodd" clip-rule="evenodd" d="M14.1667 0.676636C14.5119 0.676636 14.7917 0.956457 14.7917 1.30164V1.50997C14.7917 1.85515 15.0715 2.13497 15.4167 2.13497L15.625 2.13497C15.9702 2.13497 16.25 2.41479 16.25 2.75997V4.8433C16.25 5.18848 16.5299 5.4683 16.875 5.4683H17.0834C17.4286 5.4683 17.7084 5.74812 17.7084 6.0933V7.9683C17.7084 8.31348 17.9882 8.5933 18.3334 8.5933L18.5417 8.5933C18.8869 8.5933 19.1667 8.87313 19.1667 9.2183V9.63497C19.1667 9.98015 18.8869 10.26 18.5417 10.26H16.875C16.5299 10.26 16.25 10.5398 16.25 10.885L16.25 15.0516C16.25 15.3968 16.5299 15.6766 16.875 15.6766L18.5417 15.6766C18.8869 15.6766 19.1667 15.9564 19.1667 16.3016L19.1667 16.7183C19.1667 17.0635 18.8869 17.3433 18.5417 17.3433L15.2084 17.3433C14.8632 17.3433 14.5834 17.0635 14.5834 16.7183L14.5834 10.885C14.5834 10.5398 14.3036 10.26 13.9584 10.26L13.125 10.26C12.7799 10.26 12.5 10.5398 12.5 10.885V16.7183C12.5 17.0635 12.2202 17.3433 11.875 17.3433H1.45837C1.1132 17.3433 0.833374 17.0635 0.833374 16.7183V16.3016C0.833374 15.9565 1.1132 15.6766 1.45837 15.6766H3.12504C3.47022 15.6766 3.75004 15.3968 3.75004 15.0516L3.75004 10.885C3.75004 10.5398 3.47022 10.26 3.12504 10.26H1.45837C1.1132 10.26 0.833374 9.98015 0.833374 9.63497V9.2183C0.833374 8.87312 1.1132 8.5933 1.45837 8.5933H1.66671C2.01189 8.5933 2.29171 8.31348 2.29171 7.9683V6.0933C2.29171 5.74812 2.57153 5.4683 2.91671 5.4683H3.12504C3.47022 5.4683 3.75004 5.18848 3.75004 4.8433V2.75997C3.75004 2.41479 4.02986 2.13497 4.37504 2.13497L4.58337 2.13497C4.92855 2.13497 5.20837 1.85515 5.20837 1.50997V1.30164C5.20837 0.956458 5.4882 0.676636 5.83337 0.676636H14.1667ZM6.04171 4.00997C5.69653 4.00997 5.41671 3.73015 5.41671 3.38497V2.9683C5.41671 2.62312 5.69653 2.3433 6.04171 2.3433L13.9584 2.3433C14.3036 2.3433 14.5834 2.62312 14.5834 2.9683V3.38497C14.5834 3.73015 14.3036 4.00997 13.9584 4.00997L6.04171 4.00997ZM15.4167 8.5933C15.7619 8.5933 16.0417 8.31348 16.0417 7.9683V6.30164C16.0417 5.95646 15.7619 5.67664 15.4167 5.67664H15C14.6549 5.67664 14.375 5.95646 14.375 6.30164V7.9683C14.375 8.31348 14.6549 8.5933 15 8.5933L15.4167 8.5933ZM12.0834 8.5933C12.4286 8.5933 12.7084 8.31348 12.7084 7.9683V6.30164C12.7084 5.95646 12.4286 5.67664 12.0834 5.67664H11.4584C11.1132 5.67664 10.8334 5.95646 10.8334 6.30164V7.9683C10.8334 8.31348 11.1132 8.5933 11.4584 8.5933H12.0834ZM3.95837 6.30164C3.95837 5.95646 4.2382 5.67664 4.58337 5.67664H5.20837C5.55355 5.67664 5.83337 5.95646 5.83337 6.30164V7.9683C5.83337 8.31348 5.55355 8.5933 5.20837 8.5933H4.58337C4.2382 8.5933 3.95837 8.31348 3.95837 7.9683V6.30164ZM9.16671 6.30164C9.16671 5.95646 8.88689 5.67664 8.54171 5.67664H8.12504C7.77986 5.67664 7.50004 5.95646 7.50004 6.30164V7.9683C7.50004 8.31348 7.77986 8.5933 8.12504 8.5933H8.54171C8.88689 8.5933 9.16671 8.31348 9.16671 7.9683V6.30164ZM10.2084 10.26C10.5536 10.26 10.8334 10.5398 10.8334 10.885V15.0516C10.8334 15.3968 10.5536 15.6766 10.2084 15.6766H6.04171C5.69653 15.6766 5.41671 15.3968 5.41671 15.0516L5.41671 10.885C5.41671 10.5398 5.69653 10.26 6.04171 10.26H10.2084Z" fill="#FF7621"/>
</svg>
