<svg width="24" height="24" viewBox="0 0 24 24" fill="none" xmlns="http://www.w3.org/2000/svg">
<path d="M13 1C13 0.585786 12.6642 0.25 12.25 0.25H11.75C11.3358 0.25 11 0.585787 11 1V4C11 4.41421 11.3358 4.75 11.75 4.75H12.25C12.6642 4.75 13 4.41421 13 4V1Z" fill="#051926"/>
<path d="M13 20C13 19.5858 12.6642 19.25 12.25 19.25H11.75C11.3358 19.25 11 19.5858 11 20V23C11 23.4142 11.3358 23.75 11.75 23.75H12.25C12.6642 23.75 13 23.4142 13 23V20Z" fill="#051926"/>
<path d="M0.25 11.75C0.25 11.3358 0.585787 11 1 11H4C4.41421 11 4.75 11.3358 4.75 11.75V12.25C4.75 12.6642 4.41421 13 4 13H1C0.585786 13 0.25 12.6642 0.25 12.25V11.75Z" fill="#051926"/>
<path d="M20 11C19.5858 11 19.25 11.3358 19.25 11.75V12.25C19.25 12.6642 19.5858 13 20 13H23C23.4142 13 23.75 12.6642 23.75 12.25V11.75C23.75 11.3358 23.4142 11 23 11H20Z" fill="#051926"/>
<path d="M5 17.75C5 17.3358 5.33579 17 5.75 17H6.25C6.66421 17 7 17.3358 7 17.75V18.25C7 18.6642 6.66421 19 6.25 19H6C5.58579 19 5.25 19.3358 5.25 19.75V20C5.25 20.4142 4.91421 20.75 4.5 20.75H4C3.58579 20.75 3.25 20.4142 3.25 20V19.5C3.25 19.0858 3.58579 18.75 4 18.75H4.25C4.66421 18.75 5 18.4142 5 18V17.75Z" fill="#051926"/>
<path fill-rule="evenodd" clip-rule="evenodd" d="M9.25 6.75C8.83579 6.75 8.5 7.08579 8.5 7.5V7.75C8.5 8.16421 8.16421 8.5 7.75 8.5H7.5C7.08579 8.5 6.75 8.83579 6.75 9.25V14.75C6.75 15.1642 7.08579 15.5 7.5 15.5H7.75C8.16421 15.5 8.5 15.8358 8.5 16.25V16.5C8.5 16.9142 8.83579 17.25 9.25 17.25H14.75C15.1642 17.25 15.5 16.9142 15.5 16.5V16.25C15.5 15.8358 15.8358 15.5 16.25 15.5H16.5C16.9142 15.5 17.25 15.1642 17.25 14.75V9.25C17.25 8.83579 16.9142 8.5 16.5 8.5H16.25C15.8358 8.5 15.5 8.16421 15.5 7.75V7.5C15.5 7.08579 15.1642 6.75 14.75 6.75H9.25ZM14.5 15.25C14.9142 15.25 15.25 14.9142 15.25 14.5V9.5C15.25 9.08579 14.9142 8.75 14.5 8.75H9.5C9.08579 8.75 8.75 9.08579 8.75 9.5V14.5C8.75 14.9142 9.08579 15.25 9.5 15.25H14.5Z" fill="#051926"/>
<path d="M17.75 17C17.3358 17 17 17.3358 17 17.75V18.25C17 18.6642 17.3358 19 17.75 19H18C18.4142 19 18.75 19.3358 18.75 19.75V20C18.75 20.4142 19.0858 20.75 19.5 20.75H20C20.4142 20.75 20.75 20.4142 20.75 20V19.5C20.75 19.0858 20.4142 18.75 20 18.75H19.75C19.3358 18.75 19 18.4142 19 18V17.75C19 17.3358 18.6642 17 18.25 17H17.75Z" fill="#051926"/>
<path d="M18.75 4C18.75 3.58579 19.0858 3.25 19.5 3.25H20C20.4142 3.25 20.75 3.58579 20.75 4V4.5C20.75 4.91421 20.4142 5.25 20 5.25H19.75C19.3358 5.25 19 5.58579 19 6V6.25C19 6.66421 18.6642 7 18.25 7H17.75C17.3358 7 17 6.66421 17 6.25V5.75C17 5.33579 17.3358 5 17.75 5H18C18.4142 5 18.75 4.66421 18.75 4.25V4Z" fill="#051926"/>
<path d="M4 5.25C3.58579 5.25 3.25 4.91421 3.25 4.5V4C3.25 3.58579 3.58579 3.25 4 3.25H4.5C4.91421 3.25 5.25 3.58579 5.25 4V4.25C5.25 4.66421 5.58579 5 6 5H6.25C6.66421 5 7 5.33579 7 5.75V6.25C7 6.66421 6.66421 7 6.25 7H5.75C5.33579 7 5 6.66421 5 6.25V6C5 5.58579 4.66421 5.25 4.25 5.25H4Z" fill="#051926"/>
</svg>
